<svg width="28" height="28" viewBox="0 0 28 28" fill="none" xmlns="http://www.w3.org/2000/svg">
<rect width="28" height="28" fill="#3D5AFE"/>
<rect width="28" height="28" fill="#3D5AFE"/>
<path d="M22 20.4286C22 20.622 21.9312 20.7894 21.7935 20.9308C21.6558 21.0722 21.4928 21.1429 21.3043 21.1429H16.2826C16.2899 21.2693 16.3116 21.5949 16.3478 22.1194C16.3841 22.644 16.4022 23.0476 16.4022 23.3304C16.4022 23.5164 16.337 23.6745 16.2065 23.8047C16.0761 23.9349 15.9203 24 15.7391 24H12.2609C12.0797 24 11.9239 23.9349 11.7935 23.8047C11.663 23.6745 11.5978 23.5164 11.5978 23.3304C11.5978 23.0476 11.6159 22.644 11.6522 22.1194C11.6884 21.5949 11.7101 21.2693 11.7174 21.1429H6.69565C6.50725 21.1429 6.3442 21.0722 6.20652 20.9308C6.06884 20.7894 6 20.622 6 20.4286C6 20.2351 6.06884 20.0677 6.20652 19.9263L10.5761 15.4286H8.08696C7.89855 15.4286 7.73551 15.3579 7.59783 15.2165C7.46014 15.0751 7.3913 14.9077 7.3913 14.7143C7.3913 14.5208 7.46014 14.3534 7.59783 14.2121L11.9674 9.71429H9.82609C9.63768 9.71429 9.47464 9.6436 9.33696 9.50223C9.19928 9.36086 9.13043 9.19345 9.13043 9C9.13043 8.80655 9.19928 8.63914 9.33696 8.49777L13.5109 4.21205C13.6486 4.07068 13.8116 4 14 4C14.1884 4 14.3514 4.07068 14.4891 4.21205L18.663 8.49777C18.8007 8.63914 18.8696 8.80655 18.8696 9C18.8696 9.19345 18.8007 9.36086 18.663 9.50223C18.5254 9.6436 18.3623 9.71429 18.1739 9.71429H16.0326L20.4022 14.2121C20.5399 14.3534 20.6087 14.5208 20.6087 14.7143C20.6087 14.9077 20.5399 15.0751 20.4022 15.2165C20.2645 15.3579 20.1014 15.4286 19.913 15.4286H17.4239L21.7935 19.9263C21.9312 20.0677 22 20.2351 22 20.4286Z" fill="white"/>
</svg>